<?xml version="1.0" encoding="UTF-8" standalone="no"?>
<!-- Created with Inkscape (http://www.inkscape.org/) -->

<svg
   xmlns:dc="http://purl.org/dc/elements/1.1/"
   xmlns:cc="http://creativecommons.org/ns#"
   xmlns:rdf="http://www.w3.org/1999/02/22-rdf-syntax-ns#"
   xmlns:svg="http://www.w3.org/2000/svg"
   xmlns="http://www.w3.org/2000/svg"
   xmlns:xlink="http://www.w3.org/1999/xlink"
   xmlns:sodipodi="http://sodipodi.sourceforge.net/DTD/sodipodi-0.dtd"
   xmlns:inkscape="http://www.inkscape.org/namespaces/inkscape"
   width="128px"
   height="128px"
   viewBox="0 0 128 128"
   version="1.1"
   id="SVGRoot"
   inkscape:version="0.92.5 (2060ec1f9f, 2020-04-08)"
   sodipodi:docname="moba-systemmanager (5th copy).svg">
  <defs
     id="defs215">
    <linearGradient
       id="n"
       x1="301"
       x2="104"
       y1="33.559"
       y2="33.559"
       gradientTransform="matrix(.25 0 0 .25 -2 233)"
       gradientUnits="userSpaceOnUse">
      <stop
         offset="0"
         id="stop100"
         style="stop-color:#41d019;stop-opacity:1" />
      <stop
         offset="1"
         id="stop102"
         style="stop-color:#41d019;stop-opacity:0" />
    </linearGradient>
    <linearGradient
       id="n-3"
       x1="301"
       x2="104"
       y1="33.558998"
       y2="33.558998"
       gradientTransform="matrix(0.25,0,0,0.25,-3.4173228,37.790039)"
       gradientUnits="userSpaceOnUse"
       xlink:href="#n">
      <stop
         offset="0"
         id="stop100-6"
         style="stop-color:#819ff7;stop-opacity:1" />
      <stop
         offset="1"
         id="stop102-7"
         style="stop-color:#2e9afe;stop-opacity:0" />
    </linearGradient>
    <linearGradient
       id="n-36"
       x1="301"
       x2="104"
       y1="33.558998"
       y2="33.558998"
       gradientTransform="matrix(0.25,0,0,0.25,4.174347,39.958359)"
       gradientUnits="userSpaceOnUse">
      <stop
         offset="0"
         id="stop100-7"
         style="stop-color:#2e9afe;stop-opacity:1" />
      <stop
         offset="1"
         id="stop102-5"
         style="stop-color:#2e9afe;stop-opacity:0" />
    </linearGradient>
    <clipPath
       id="d">
      <path
         inkscape:connector-curvature="0"
         d="M 0,0 H 192 V 152 H 0 Z"
         id="path11" />
    </clipPath>
    <mask
       id="y">
      <g
         style="filter:url(#a)"
         id="g35">
        <path
           style="fill-opacity:0.23600003"
           inkscape:connector-curvature="0"
           d="M 0,0 H 128 V 128 H 0 Z"
           id="path33" />
      </g>
    </mask>
    <filter
       id="a"
       x="0"
       y="0"
       width="1"
       height="1">
      <feColorMatrix
         in="SourceGraphic"
         values="0 0 0 0 1 0 0 0 0 1 0 0 0 0 1 0 0 0 1 0"
         id="feColorMatrix128" />
    </filter>
    <clipPath
       id="clipPath915">
      <path
         inkscape:connector-curvature="0"
         d="M 0,0 H 192 V 152 H 0 Z"
         id="path913" />
    </clipPath>
    <clipPath
       id="t">
      <path
         d="M0 0h128v128H0z"
         id="path5" />
    </clipPath>
    <clipPath
       id="r">
      <path
         d="M0 0h128v128H0z"
         id="path14" />
    </clipPath>
    <linearGradient
       id="s"
       x1="300"
       x2="428"
       y1="235"
       y2="235"
       gradientTransform="matrix(0 .37 -.98462 0 295.38 -30.36)"
       gradientUnits="userSpaceOnUse">
      <stop
         stop-color="#f9f06b"
         offset="0"
         id="stop105" />
      <stop
         stop-color="#f5c211"
         offset="1"
         id="stop107" />
    </linearGradient>
    <mask
       id="v">
      <g
         style="filter:url(#a-3)"
         id="g22">
        <path
           d="M 0,0 H 128 V 128 H 0 Z"
           id="path20"
           inkscape:connector-curvature="0"
           style="fill-opacity:0.8" />
      </g>
    </mask>
    <filter
       id="a-3"
       x="0%"
       y="0%"
       width="100%"
       height="100%">
      <feColorMatrix
         in="SourceGraphic"
         values="0 0 0 0 1 0 0 0 0 1 0 0 0 0 1 0 0 0 1 0"
         id="feColorMatrix128-6" />
    </filter>
    <clipPath
       id="clipPath917">
      <path
         d="M0 0h128v128H0z"
         id="path915" />
    </clipPath>
    <mask
       id="B">
      <g
         clip-path="url(#o)"
         id="use30"
         style="filter:url(#a)">
        <g
           clip-path="url(#h)"
           id="use1125">
          <path
             style="fill:#f6f5f4"
             inkscape:connector-curvature="0"
             id="path1133"
             d="m 16,28 h 96 a 8,8 0 0 1 8,8 v 70 a 8,8 0 0 1 -8,8 H 16 A 8,8 0 0 1 8,106 V 36 a 8,8 0 0 1 8,-8 z m 0,0" />
          <path
             style="fill:#241f31"
             inkscape:connector-curvature="0"
             id="path1135"
             d="m 16,32 h 84 c 2.21,0 4,1.79 4,4 v 68 c 0,2.21 -1.79,4 -4,4 H 16 c -2.21,0 -4,-1.79 -4,-4 V 36 c 0,-2.21 1.79,-4 4,-4 z" />
          <path
             style="fill:url(#linearGradient1173)"
             inkscape:connector-curvature="0"
             id="path1137"
             d="m 8,104 v 4 c 0,4.434 3.566,8 8,8 h 96 c 4.434,0 8,-3.566 8,-8 v -4 c 0,4.434 -3.566,8 -8,8 H 16 a 7.98,7.98 0 0 1 -8,-8 z" />
          <g
             id="g1141"
             clip-path="url(#b)">
            <path
               d="m 16,104 h 84 V 36 H 16 Z"
               id="path1139"
               inkscape:connector-curvature="0"
               style="fill:url(#radialGradient1175)" />
          </g>
          <g
             id="g1145"
             clip-path="url(#d)">
            <path
               d="m 16,74 h 26 l 10,-23 6,39 8,-16 h 34"
               stroke-miterlimit="10"
               id="path1143"
               inkscape:connector-curvature="0"
               style="fill:none;stroke:#e5a50a;stroke-width:4;stroke-miterlimit:10" />
          </g>
          <path
             style="fill:none;stroke:url(#linearGradient1177);stroke-width:4;stroke-linecap:round;stroke-miterlimit:10"
             inkscape:connector-curvature="0"
             id="path1147"
             stroke-miterlimit="10"
             d="m 16,246 h 26 l 10,-23 6,39 8,-16 h 6"
             transform="translate(0,-172)" />
          <path
             style="fill:#949390"
             inkscape:connector-curvature="0"
             id="path1149"
             d="m 116,62 v 4 c 0,2.21 -1.79,4 -4,4 -2.21,0 -4,-1.79 -4,-4 v -2 l 4,-2 z m 0,16 v 6 h -4 c -2.215,0 -4,-1.785 -4,-4 v -2 z" />
          <path
             style="fill:#d5d3cf"
             inkscape:connector-curvature="0"
             id="path1151"
             d="m 116,82 v -4 c 0,-2.21 -1.79,-4 -4,-4 -2.21,0 -4,1.79 -4,4 0,2.21 1.79,4 4,4 z" />
          <path
             style="fill:#68676b"
             inkscape:connector-curvature="0"
             id="path1153"
             d="m 113,80 c 0,0.55 0.45,1 1,1 0.55,0 1,-0.45 1,-1 0,-0.55 -0.45,-1 -1,-1 -0.55,0 -1,0.45 -1,1 z m 0,0" />
          <path
             style="fill:#d5d3cf"
             inkscape:connector-curvature="0"
             id="path1155"
             d="m 116,60 v 4 c 0,2.21 -1.79,4 -4,4 -2.21,0 -4,-1.79 -4,-4 0,-2.21 1.79,-4 4,-4 z" />
          <path
             style="fill:#68676b"
             inkscape:connector-curvature="0"
             id="path1157"
             d="m 113,62 c 0,-0.55 0.45,-1 1,-1 0.55,0 1,0.45 1,1 0,0.55 -0.45,1 -1,1 -0.55,0 -1,-0.45 -1,-1 z m 0,0" />
          <path
             style="fill:#949390"
             inkscape:connector-curvature="0"
             id="path1159"
             d="m 108,48 v 4 c 0,2.21 1.79,4 4,4 2.21,0 4,-1.79 4,-4 v -2 l -4,-2 z" />
          <path
             style="fill:#d5d3cf"
             inkscape:connector-curvature="0"
             id="path1161"
             d="m 108,46 v 4 c 0,2.21 1.79,4 4,4 2.21,0 4,-1.79 4,-4 0,-2.21 -1.79,-4 -4,-4 z" />
          <path
             style="fill:#68676b"
             inkscape:connector-curvature="0"
             id="path1163"
             d="m 111,48 c 0,-0.55 -0.45,-1 -1,-1 -0.55,0 -1,0.45 -1,1 0,0.55 0.45,1 1,1 0.55,0 1,-0.45 1,-1 z m 0,0" />
          <path
             style="fill:#949390"
             inkscape:connector-curvature="0"
             id="path1165"
             d="m 116,36 v 6 h -4 c -2.215,0 -4,-1.785 -4,-4 v -2 z" />
          <path
             style="fill:#d5d3cf"
             inkscape:connector-curvature="0"
             id="path1167"
             d="m 116,40 v -4 c 0,-2.21 -1.79,-4 -4,-4 -2.21,0 -4,1.79 -4,4 0,2.21 1.79,4 4,4 z" />
          <path
             style="fill:#68676b"
             inkscape:connector-curvature="0"
             id="path1169"
             d="m 113,38 c 0,0.55 0.45,1 1,1 0.55,0 1,-0.45 1,-1 0,-0.55 -0.45,-1 -1,-1 -0.55,0 -1,0.45 -1,1 z m 0,0" />
        </g>
      </g>
    </mask>
    <clipPath
       id="o">
      <path
         d="M0 0h128v128H0z"
         id="path2" />
    </clipPath>
    <filter
       id="filter931"
       x="0%"
       y="0%"
       width="100%"
       height="100%">
      <feColorMatrix
         in="SourceGraphic"
         values="0 0 0 0 1 0 0 0 0 1 0 0 0 0 1 0 0 0 1 0"
         id="feColorMatrix929" />
    </filter>
    <clipPath
       id="h">
      <path
         d="M0 0h128v128H0z"
         id="path17" />
    </clipPath>
    <linearGradient
       id="i"
       x1="120"
       x2="568"
       y1="619.96"
       y2="619.96"
       gradientTransform="matrix(.25 0 0 .25 -22 -50.991)"
       gradientUnits="userSpaceOnUse">
      <stop
         stop-color="#d5d3cf"
         offset="0"
         id="stop110" />
      <stop
         stop-color="#e4e1de"
         offset=".036"
         id="stop112" />
      <stop
         stop-color="#d5d3cf"
         offset=".071"
         id="stop114" />
      <stop
         stop-color="#d5d3cf"
         offset=".929"
         id="stop116" />
      <stop
         stop-color="#e4e1de"
         offset=".964"
         id="stop118" />
      <stop
         stop-color="#d5d3cf"
         offset="1"
         id="stop120" />
    </linearGradient>
    <clipPath
       id="b">
      <path
         d="M0 0h192v152H0z"
         id="path8" />
    </clipPath>
    <radialGradient
       id="c"
       cx="64"
       cy="194.19"
       r="44"
       gradientTransform="matrix(-4.1364 0 0 1.3909 319.23 -170.64)"
       gradientUnits="userSpaceOnUse">
      <stop
         stop-color="#fff"
         offset="0"
         id="stop123" />
      <stop
         stop-color="#fff"
         stop-opacity=".094"
         offset="1"
         id="stop125" />
    </radialGradient>
    <mask
       id="k">
      <g
         style="filter:url(#a-3)"
         id="g45">
        <path
           d="M 0,0 H 128 V 128 H 0 Z"
           id="path43"
           inkscape:connector-curvature="0"
           style="fill-opacity:0.05" />
      </g>
    </mask>
    <filter
       id="filter952"
       x="0%"
       y="0%"
       width="100%"
       height="100%">
      <feColorMatrix
         in="SourceGraphic"
         values="0 0 0 0 1 0 0 0 0 1 0 0 0 0 1 0 0 0 1 0"
         id="feColorMatrix950" />
    </filter>
    <clipPath
       id="clipPath956">
      <path
         d="M0 0h192v152H0z"
         id="path954" />
    </clipPath>
    <radialGradient
       id="radialGradient962"
       cx="64"
       cy="194.19"
       r="44"
       gradientTransform="matrix(-4.1364 0 0 1.3909 319.23 -170.64)"
       gradientUnits="userSpaceOnUse">
      <stop
         stop-color="#fff"
         offset="0"
         id="stop958" />
      <stop
         stop-color="#fff"
         stop-opacity=".094"
         offset="1"
         id="stop960" />
    </radialGradient>
    <clipPath
       id="d-7">
      <path
         d="M0 0h192v152H0z"
         id="path11-5" />
    </clipPath>
    <mask
       id="m">
      <g
         style="filter:url(#a-3)"
         id="g27">
        <path
           d="M 0,0 H 128 V 128 H 0 Z"
           id="path25"
           inkscape:connector-curvature="0"
           style="fill-opacity:0.23600003" />
      </g>
    </mask>
    <filter
       id="filter971"
       x="0%"
       y="0%"
       width="100%"
       height="100%">
      <feColorMatrix
         in="SourceGraphic"
         values="0 0 0 0 1 0 0 0 0 1 0 0 0 0 1 0 0 0 1 0"
         id="feColorMatrix969" />
    </filter>
    <clipPath
       id="clipPath975">
      <path
         d="M0 0h192v152H0z"
         id="path973" />
    </clipPath>
    <linearGradient
       id="n-35"
       x1="301"
       x2="104"
       y1="33.559"
       y2="33.559"
       gradientTransform="matrix(.25 0 0 .25 -2 233)"
       gradientUnits="userSpaceOnUse">
      <stop
         stop-color="#f9f06b"
         offset="0"
         id="stop100-62" />
      <stop
         stop-color="#f9f06b"
         stop-opacity="0"
         offset="1"
         id="stop102-9" />
    </linearGradient>
    <clipPath
       id="clipPath982">
      <path
         d="M0 0h128v128H0z"
         id="path980" />
    </clipPath>
    <mask
       id="mask1002">
      <g
         style="filter:url(#a-3)"
         filter="url(#a)"
         id="g1000">
        <path
           d="M0 0h128v128H0z"
           fill-opacity=".05"
           id="path998" />
      </g>
    </mask>
    <filter
       id="filter1006"
       x="0%"
       y="0%"
       width="100%"
       height="100%">
      <feColorMatrix
         in="SourceGraphic"
         values="0 0 0 0 1 0 0 0 0 1 0 0 0 0 1 0 0 0 1 0"
         id="feColorMatrix1004" />
    </filter>
    <clipPath
       id="clipPath1010">
      <path
         d="M0 0h192v152H0z"
         id="path1008" />
    </clipPath>
    <radialGradient
       id="radialGradient1016"
       cx="64"
       cy="194.19"
       r="44"
       gradientTransform="matrix(-4.1364 0 0 1.3909 319.23 -170.64)"
       gradientUnits="userSpaceOnUse">
      <stop
         stop-color="#fff"
         offset="0"
         id="stop1012" />
      <stop
         stop-color="#fff"
         stop-opacity=".094"
         offset="1"
         id="stop1014" />
    </radialGradient>
    <mask
       id="mask1022">
      <g
         style="filter:url(#a-3)"
         filter="url(#a)"
         id="g1020">
        <path
           d="M0 0h128v128H0z"
           fill-opacity=".236"
           id="path1018" />
      </g>
    </mask>
    <filter
       id="filter1026"
       x="0%"
       y="0%"
       width="100%"
       height="100%">
      <feColorMatrix
         in="SourceGraphic"
         values="0 0 0 0 1 0 0 0 0 1 0 0 0 0 1 0 0 0 1 0"
         id="feColorMatrix1024" />
    </filter>
    <clipPath
       id="clipPath1030">
      <path
         d="M0 0h192v152H0z"
         id="path1028" />
    </clipPath>
    <clipPath
       id="clipPath1040">
      <path
         d="M0 0h128v128H0z"
         id="path1038" />
    </clipPath>
    <filter
       id="filter1044"
       x="0%"
       y="0%"
       width="100%"
       height="100%">
      <feColorMatrix
         in="SourceGraphic"
         values="0 0 0 0 1 0 0 0 0 1 0 0 0 0 1 0 0 0 1 0"
         id="feColorMatrix1042" />
    </filter>
    <clipPath
       id="clipPath1048">
      <path
         d="M0 0h128v128H0z"
         id="path1046" />
    </clipPath>
    <mask
       id="mask1068">
      <g
         style="filter:url(#a-3)"
         filter="url(#a)"
         id="g1066">
        <path
           d="M0 0h128v128H0z"
           fill-opacity=".05"
           id="path1064" />
      </g>
    </mask>
    <filter
       id="filter1072"
       x="0%"
       y="0%"
       width="100%"
       height="100%">
      <feColorMatrix
         in="SourceGraphic"
         values="0 0 0 0 1 0 0 0 0 1 0 0 0 0 1 0 0 0 1 0"
         id="feColorMatrix1070" />
    </filter>
    <clipPath
       id="clipPath1076">
      <path
         d="M0 0h192v152H0z"
         id="path1074" />
    </clipPath>
    <radialGradient
       id="radialGradient1082"
       cx="64"
       cy="194.19"
       r="44"
       gradientTransform="matrix(-4.1364 0 0 1.3909 319.23 -170.64)"
       gradientUnits="userSpaceOnUse">
      <stop
         stop-color="#fff"
         offset="0"
         id="stop1078" />
      <stop
         stop-color="#fff"
         stop-opacity=".094"
         offset="1"
         id="stop1080" />
    </radialGradient>
    <mask
       id="mask1088">
      <g
         style="filter:url(#a-3)"
         filter="url(#a)"
         id="g1086">
        <path
           d="M0 0h128v128H0z"
           fill-opacity=".236"
           id="path1084" />
      </g>
    </mask>
    <filter
       id="filter1092"
       x="0%"
       y="0%"
       width="100%"
       height="100%">
      <feColorMatrix
         in="SourceGraphic"
         values="0 0 0 0 1 0 0 0 0 1 0 0 0 0 1 0 0 0 1 0"
         id="feColorMatrix1090" />
    </filter>
    <clipPath
       id="clipPath1096">
      <path
         d="M0 0h192v152H0z"
         id="path1094" />
    </clipPath>
    <clipPath
       id="clipPath1106">
      <path
         d="M0 0h128v128H0z"
         id="path1104" />
    </clipPath>
    <mask
       id="mask1112">
      <g
         style="filter:url(#a-3)"
         filter="url(#a)"
         id="g1110">
        <path
           d="M0 0h128v128H0z"
           fill-opacity=".8"
           id="path1108" />
      </g>
    </mask>
    <filter
       id="filter1116"
       x="0%"
       y="0%"
       width="100%"
       height="100%">
      <feColorMatrix
         in="SourceGraphic"
         values="0 0 0 0 1 0 0 0 0 1 0 0 0 0 1 0 0 0 1 0"
         id="feColorMatrix1114" />
    </filter>
    <clipPath
       id="clipPath1120">
      <path
         d="M0 0h128v128H0z"
         id="path1118" />
    </clipPath>
    <linearGradient
       inkscape:collect="always"
       xlink:href="#i"
       id="linearGradient1173"
       gradientUnits="userSpaceOnUse"
       gradientTransform="matrix(0.25,0,0,0.25,-22,-50.991)"
       x1="120"
       y1="619.96"
       x2="568"
       y2="619.96" />
    <radialGradient
       inkscape:collect="always"
       xlink:href="#c"
       id="radialGradient1175"
       gradientUnits="userSpaceOnUse"
       gradientTransform="matrix(-4.1364,0,0,1.3909,319.23,-170.64)"
       cx="64"
       cy="194.19"
       r="44" />
    <linearGradient
       inkscape:collect="always"
       xlink:href="#n"
       id="linearGradient1177"
       gradientUnits="userSpaceOnUse"
       gradientTransform="matrix(0.25,0,0,0.25,-2,233)"
       x1="301"
       y1="33.559"
       x2="104"
       y2="33.559" />
    <linearGradient
       inkscape:collect="always"
       xlink:href="#s"
       id="linearGradient1185"
       gradientUnits="userSpaceOnUse"
       gradientTransform="matrix(0,0.37,-0.98462,0,295.38,-30.36)"
       x1="300"
       y1="235"
       x2="428"
       y2="235" />
  </defs>
  <sodipodi:namedview
     id="base"
     pagecolor="#ffffff"
     bordercolor="#666666"
     borderopacity="1.0"
     inkscape:pageopacity="0.0"
     inkscape:pageshadow="2"
     inkscape:zoom="5.953125"
     inkscape:cx="59.212514"
     inkscape:cy="50.56168"
     inkscape:document-units="px"
     inkscape:current-layer="layer1"
     showgrid="false"
     inkscape:window-width="1280"
     inkscape:window-height="960"
     inkscape:window-x="1280"
     inkscape:window-y="27"
     inkscape:window-maximized="1"
     inkscape:grid-bbox="true"
     inkscape:snap-global="true" />
  <metadata
     id="metadata218">
    <rdf:RDF>
      <cc:Work
         rdf:about="">
        <dc:format>image/svg+xml</dc:format>
        <dc:type
           rdf:resource="http://purl.org/dc/dcmitype/StillImage" />
        <dc:title />
      </cc:Work>
    </rdf:RDF>
  </metadata>
  <g
     inkscape:label="Layer 1"
     inkscape:groupmode="layer"
     id="layer1">
    <rect
       id="rect228"
       width="108"
       height="84"
       x="10"
       y="20"
       style="fill:#b3b3b3"
       rx="5" />
    <rect
       style="fill:#000000;stroke-width:9.32917309"
       id="rect251"
       width="98"
       height="66.976379"
       x="15"
       y="25"
       rx="3"
       ry="2.8704162" />
    <path
       style="fill:none;stroke:#56432c;stroke-width:4;stroke-miterlimit:10;stroke-opacity:1"
       inkscape:connector-curvature="0"
       id="path1747-3-0"
       stroke-miterlimit="10"
       d="m 22,53 h 86" />
    <path
       style="fill:none;stroke:#56432c;stroke-width:4;stroke-miterlimit:10;stroke-opacity:1"
       inkscape:connector-curvature="0"
       id="path1747-3-0-36"
       stroke-miterlimit="10"
       d="m 22,65 h 86" />
    <path
       style="fill:none;stroke:#56432c;stroke-width:4;stroke-miterlimit:10;stroke-opacity:1"
       inkscape:connector-curvature="0"
       id="path1747-3-0-3"
       stroke-miterlimit="10"
       d="m 22,77 h 86" />
    <path
       style="fill:none;stroke:#56432c;stroke-width:4;stroke-miterlimit:10;stroke-opacity:1"
       inkscape:connector-curvature="0"
       id="path1747-3-0-7"
       stroke-miterlimit="10"
       d="M 40,53 85,77" />
    <g
       clip-path="url(#t)"
       id="use167"
       transform="matrix(0.76637231,0,0,0.39156227,14.948966,33.833868)"
       style="opacity:0.62300002">
      <g
         clip-path="url(#r)"
         id="use1114">
        <path
           style="fill:url(#linearGradient1185)"
           inkscape:connector-curvature="0"
           id="path1179"
           d="M 128,80.64 V 128 H 0 V 80.64 Z m 0,0" />
        <path
           inkscape:connector-curvature="0"
           id="path1181"
           d="M 13.309,80.64 60.664,128 H 81.88 L 34.52,80.64 Z m 42.421,0 47.364,47.36 h 21.215 L 76.945,80.64 Z m 42.43,0 29.84,29.84 V 89.27 l -8.629,-8.63 z M 0,88.548 v 21.215 L 18.238,128 h 21.215 z m 0,0" />
      </g>
    </g>
  </g>
</svg>
